<svg xmlns="http://www.w3.org/2000/svg" version="1.1" xmlns:xlink="http://www.w3.org/1999/xlink" xmlns:svgjs="http://svgjs.dev/svgjs" width="750" height="515" viewBox="0 0 312 312" class="svg-animations " style="background: rgb(57, 87, 76);"><svg viewBox="0 0 259.6449279785156 211.09756469726562" width="100" height="100" x="106" y="68.17475700378418" style="fill: rgb(121, 227, 189);"><svg viewBox="0 0 164 130" xmlns="http://www.w3.org/2000/svg">
<path d="M100.584 70.3569C114.352 62.8663 139.863 70.3569 139.863 70.3569C130.887 66.2393 123.947 65.919 120.302 64.7058C123.151 59.0536 129.335 52.7471 136.421 45.2551C132.371 47.6865 127.714 51.1341 122.247 58.4225C116.779 65.711 108.275 64.3081 105.237 62.8903C102.199 61.4738 103.618 52.0319 106.451 42.92C101.592 51.222 101.997 57.3969 100.277 62.4603C98.5565 67.5223 92.078 66.7123 82.7636 75.2154C82.0282 75.9141 81.3444 76.6319 80.662 77.3496C81.3444 76.6075 82.0432 75.8884 82.7636 75.2154C77.6484 65.0437 81.0229 55.846 87.5082 48.9171C81.4653 52.6033 79.5466 55.1093 77.4845 58.6466C73.2092 31.3753 87.5082 19.8772 87.5082 19.8772C80.1381 23.2651 76.0083 38.8979 73.7965 45.9748C70.8496 40.3727 62.0063 33.4451 62.0063 33.4451C62.0063 33.4451 68.3437 41.8464 72.3245 53.7884C76.3053 65.728 74.536 77.2279 70.113 77.9635C59.206 76.1943 56.1099 66.9072 53.5292 61.305C54.0448 66.0225 56.4042 71.6233 56.4042 71.6233C56.4042 71.6233 51.0965 72.0669 45.4944 70.0006C38.4175 65.8096 31.905 52.2254 24.2133 47.5583C28.5508 50.8092 36.6155 64.5113 41.8092 71.0332C36.2071 71.1797 25.1507 75.7521 19.55 81.0569C35.7663 71.0332 48.444 72.657 55.8151 75.3082C56.256 78.2578 48.1494 87.9845 43.7247 92.9979C50.3581 87.1001 55.8151 81.7922 59.7945 76.634C69.201 79.8034 69.6421 89.3998 67.9405 94.1851C64.5051 103.852 63.9298 112.354 63.9298 116.073C63.9298 122.145 66.6257 130 66.6257 130H91.4653C88.0231 130 77.0888 119.717 77.0888 105.139C77.0888 83.6758 96.7295 71.9776 98.9559 72.3833C101.185 72.789 109.08 81.8971 117.788 85.137C110.704 81.9011 102.405 73.3954 100.581 70.359L100.584 70.3569Z"></path>
<path d="M24.2153 47.5614C23.7499 47.21 23.313 46.9455 22.9413 46.8586C23.3687 47.0581 23.7933 47.3036 24.2153 47.5614Z"></path>
<path d="M6.5777 91.1726C15.2326 91.5416 19.1345 85.4336 18.7955 81.6998C18.7955 81.7025 8.78535 81.8083 6.5777 91.1726Z"></path>
<path d="M25.226 72.8264C25.226 72.8264 18.0717 65.8242 9.89057 70.8835C15.7477 77.2658 22.826 75.7056 25.226 72.8264Z"></path>
<path d="M12.3122 78.3803C12.3122 78.3803 5.85664 73.7403 0.0429688 78.6937C5.4051 83.0014 10.7749 80.9297 12.3122 78.3803Z"></path>
<path d="M32.7354 66.6161C32.7354 66.6161 28.6799 67.281 28.3638 71.2169C31.8983 70.8329 33.1043 68.1099 32.7354 66.6161Z"></path>
<path d="M26.6397 57.0089C27.1634 61.8104 30.8619 63.4467 32.8945 62.9448C32.8945 62.9448 31.9881 57.4351 26.6397 57.0089Z"></path>
<path d="M19.2276 63.2782C22.4567 67.9916 27.2232 67.6321 29.0613 65.9728C29.0613 65.9714 25.0413 60.7343 19.2276 63.2782Z"></path>
<path d="M15.7612 53.7127C21.0959 57.6841 26.2097 55.486 27.606 52.9638C27.6073 52.9638 21.2008 48.7197 15.7612 53.7127Z"></path>
<path d="M12.5032 64.3376C16.4906 62.9931 17.188 59.5468 16.3781 57.9092C16.3781 57.9078 11.8683 59.715 12.5032 64.3376Z"></path>
<path d="M13.2673 55.366C13.2673 55.366 10.0355 51.7367 5.90422 53.9088C8.52551 57.199 12.0055 56.6848 13.2673 55.366Z"></path>
<path d="M16.7094 39.2949C16.7094 39.2949 13.3582 33.1554 6.85939 34.857C9.46168 40.3233 14.5115 40.7318 16.7094 39.2949Z"></path>
<path d="M23.0552 40.6356C23.0552 40.6356 25.8122 33.2589 19.5763 28.9808C16.8411 35.2207 20.214 39.8214 23.0552 40.6356Z"></path>
<path d="M29.6927 47.1689C29.6927 47.1689 34.6231 39.8763 28.9682 33.5931C24.3619 39.6565 26.8205 45.5396 29.6927 47.1689Z"></path>
<path d="M34.5936 53.3237C34.5936 53.3237 38.1837 51.6046 37.4116 47.8625C34.2314 49.1759 33.8459 52.0306 34.5936 53.3237Z"></path>
<path d="M38.977 60.1314C38.977 60.1314 42.1844 56.5834 39.6242 52.7735C36.6813 55.6824 37.5537 59.0335 38.977 60.1314Z"></path>
<path d="M48.8551 55.557C48.2012 59.2204 50.5796 61.2338 52.1941 61.2974C52.1955 61.2974 52.7124 57.029 48.8551 55.557Z"></path>
<path d="M64.506 56.9464C59.1154 57.4117 57.1915 61.5121 57.7059 63.802C57.7059 63.802 63.8982 62.9161 64.506 56.9464Z"></path>
<path d="M62.4255 47.1446C55.4597 49.2205 54.0433 55.1361 55.3405 58.0082C55.3405 58.0095 63.2452 55.1603 62.4255 47.1446Z"></path>
<path d="M49.0566 46.2381C48.385 51.0233 51.5707 53.5199 53.6695 53.5293C53.6695 53.5293 54.1322 47.9612 49.0566 46.2381Z"></path>
<path d="M34.993 37.3359C34.4707 41.0482 36.9427 42.987 38.5723 42.9922C38.5723 42.9936 38.9332 38.6735 34.993 37.3359Z"></path>
<path d="M42.0578 45.203C42.0578 45.203 47.4672 45.6548 49.1417 40.7231C44.4905 40.0678 42.0634 43.1667 42.0578 45.203Z"></path>
<path d="M41.5056 39.861C41.5056 39.861 47.7211 37.9995 47.4293 31.7814C41.9724 33.0852 40.6251 37.5884 41.5056 39.861Z"></path>
<path d="M44.7253 19.8373C39.7567 22.445 39.5574 27.142 40.9724 29.1256C40.9697 29.1256 46.5377 25.7934 44.7253 19.8373Z"></path>
<path d="M38.5914 23.1717C38.5914 23.1717 38.6538 15.753 31.7615 13.9753C31.3463 20.3753 35.8114 23.3669 38.5914 23.1717Z"></path>
<path d="M31.4398 26.5721C31.4398 26.5721 31.4805 21.6333 26.896 20.4517C26.6192 24.7121 29.5906 26.7023 31.4398 26.5721Z"></path>
<path d="M36.2018 30.3059C36.2018 30.3059 32.5221 27.013 28.6052 29.6723C31.62 32.6965 35.0771 31.7793 36.2018 30.3059Z"></path>
<path d="M52.2937 41.3789C51.8202 44.7559 54.0671 46.517 55.5486 46.525C55.5513 46.525 55.8783 42.5932 52.2937 41.3789Z"></path>
<path d="M55.1176 38.9649C58.5978 42.0651 62.307 40.8427 63.4372 39.1657C63.4372 39.1644 59.2164 35.8118 55.1176 38.9649Z"></path>
<path d="M61.0952 33.2999C61.0952 33.2999 58.1781 24.6221 49.4241 25.3317C51.523 32.9637 57.9351 34.6444 61.0952 33.2999Z"></path>
<path d="M68.7296 36.3078C68.7296 36.3078 75.3383 29.9704 70.9669 22.3533C64.9563 27.5008 66.1681 34.0189 68.7296 36.3078Z"></path>
<path d="M62.2483 29.8266C62.2483 29.8266 68.857 23.4905 64.4856 15.8749C58.4764 21.0224 59.6869 27.5404 62.2483 29.8266Z"></path>
<path d="M71.3971 11.9042C71.3971 11.9042 74.8487 4.84495 69.0743 0C65.7556 5.92377 68.6578 10.8177 71.3971 11.9042Z"></path>
<path d="M83.5468 20.1116C83.5468 20.1116 88.3852 12.6183 82.5265 6.38503C77.9921 12.6141 80.6067 18.5202 83.5468 20.1116Z"></path>
<path d="M105.932 10.3967C96.9872 8.49998 91.8561 14.1917 91.5546 18.1464C91.5546 18.1464 102.015 19.7596 105.932 10.3967Z"></path>
<path d="M91.0874 5.88834C87.5151 8.5544 87.9478 12.265 89.3006 13.6464C89.3019 13.6477 93.257 10.3372 91.0874 5.88834Z"></path>
<path d="M102.056 26.1865C96.9195 19.9751 90.2646 21.0946 87.8902 23.6616C87.8902 23.6616 94.2263 30.5009 102.056 26.1865Z"></path>
<path d="M93.4423 33.3242C90.2539 29.4681 86.1212 30.1629 84.6465 31.7585C84.6465 31.7585 88.5824 36.0054 93.4423 33.3242Z"></path>
<path d="M89.1979 47.089C89.1979 47.089 96.842 45.887 97.4877 38.4911C90.83 39.1614 88.5224 44.2656 89.1979 47.089Z"></path>
<path d="M110.26 40.6078C110.26 40.6078 121.146 38.8928 122.065 28.3629C112.587 29.3181 109.301 36.5905 110.26 40.6078Z"></path>
<path d="M132.524 44.7619C132.524 44.7619 140.09 41.0593 138.393 33.1617C131.682 35.9919 130.917 42.043 132.524 44.7619Z"></path>
<path d="M124.765 53.4036C124.765 53.4036 129.22 48.3401 125.538 43.0214C121.446 47.1786 122.741 51.8864 124.765 53.4036Z"></path>
<path d="M145.178 25.4258C140.968 26.3837 139.894 29.8366 140.551 31.5924C140.55 31.5897 145.353 30.2126 145.178 25.4258Z"></path>
<path d="M149.252 29.7258C141.343 31.5249 139.326 38.0115 140.561 41.3087C140.558 41.3101 149.578 38.72 149.252 29.7258Z"></path>
<path d="M140.954 44.2895C140.954 44.2895 147.625 50.8861 155.309 46.1972C149.868 40.1813 143.227 41.5978 140.954 44.2895Z"></path>
<path d="M135.07 50.5172C135.07 50.5172 138.857 58.6525 147.308 57.0054C144.43 49.801 138.005 48.8594 135.07 50.5172Z"></path>
<path d="M144.789 68.3389C144.789 68.3389 148.836 77.0372 157.869 75.2776C154.795 67.5751 147.925 66.5644 144.789 68.3389Z"></path>
<path d="M143.535 76.0948C143.535 76.0948 145.259 83.557 152.607 83.6764C151.477 77.1518 146.276 75.2293 143.535 76.0948Z"></path>
<path d="M136.223 75.9872C136.223 75.9872 134.108 83.3451 140.473 87.0178C142.653 80.7672 139.043 76.5624 136.223 75.9872Z"></path>
<path d="M136.574 72.3506C136.574 72.3506 138.513 75.771 142.145 74.7521C140.634 71.7089 137.796 71.5243 136.574 72.3506Z"></path>
<path d="M131.778 73.799C131.778 73.799 127.771 77.5193 130.312 82.1107C133.948 79.0905 133.288 75.1897 131.778 73.799Z"></path>
<path d="M132.688 87.8035C128.942 81.523 122.823 81.6018 120.33 83.5729C120.33 83.5729 125.063 90.5887 132.688 87.8035Z"></path>
<path d="M125.803 74.5214C118.66 72.9652 114.533 77.4846 114.272 80.6512C114.272 80.6512 122.627 81.993 125.803 74.5214Z"></path>
<path d="M107.388 72.9688C107.388 72.9688 112.507 75.757 116.285 71.6283C111.999 68.9799 108.283 70.969 107.388 72.9688Z"></path>
<path d="M127.342 91.8777C127.342 91.8777 127.456 99.0171 134.129 100.562C134.374 94.3931 130.011 91.6307 127.342 91.8777Z"></path>
<path d="M118.353 88.1438C118.353 88.1438 117.342 96.5573 124.944 99.443C126.221 92.2302 121.534 88.2793 118.353 88.1438Z"></path>
<path d="M109.725 84.0349C109.725 84.0349 105.742 90.5339 110.872 95.7452C114.621 90.3289 112.273 85.3402 109.725 84.0349Z"></path>
<path d="M96.4919 89.8701C102.337 87.4211 103.022 82.1596 101.63 79.7825C101.63 79.7825 95.0321 82.9858 96.4919 89.8701Z"></path>
<path d="M99.9375 74.4554C99.9375 74.4554 94.1047 75.1013 93.3586 80.679C98.4234 80.4022 100.35 76.6169 99.9375 74.4554Z"></path>
<path d="M104.067 77.9774C104.067 77.9774 102.171 82.011 105.488 84.7098C107.318 81.3178 105.633 78.5675 104.067 77.9774Z"></path>
<path d="M158.38 35.568C152.857 34.4215 149.706 37.9396 149.532 40.3803C149.534 40.3803 155.984 41.3517 158.38 35.568Z"></path>
<path d="M109.326 47.485C109.326 47.485 116.285 49.4645 119.737 43.4445C113.826 41.3998 109.866 44.8243 109.326 47.485Z"></path>
<path d="M113.56 57.0783C113.56 57.0783 118.908 56.2344 119.36 51.0625C114.701 51.532 113.089 55.1031 113.56 57.0783Z"></path>
<path d="M111.754 59.468C111.754 59.468 112.747 54.771 108.603 52.7613C107.519 56.7637 109.971 59.2318 111.754 59.468Z"></path>
<path d="M112.98 58.8949C112.98 58.8949 115.491 61.3452 118.353 59.5733C116.303 57.3414 113.822 57.8841 112.98 58.8949Z"></path>
<path d="M145.654 61.2637C139.743 59.2191 135.782 62.6436 135.243 65.3042C135.243 65.3042 142.202 67.2838 145.654 61.2637Z"></path>
<path d="M127.745 63.1984C127.745 63.1984 134.974 63.5376 136.959 56.8908C130.739 56.2477 127.662 60.485 127.745 63.1984Z"></path>
<path d="M152.704 54.6505C152.704 54.6505 158.03 59.5486 163.819 55.7237C159.461 51.2396 154.383 52.5163 152.704 54.6505Z"></path>
<path d="M154.306 49.7149C150.34 49.3336 148.402 52.0472 148.466 53.7769C148.466 53.7769 153.073 53.9588 154.306 49.7149Z"></path>
<path d="M154.99 61.5624C154.41 56.8529 150.755 55.2955 148.766 55.8151C148.765 55.8151 149.738 61.2217 154.99 61.5624Z"></path>
<path d="M103.529 32.4281C101.857 37.2581 104.658 40.4994 106.831 40.9392C106.831 40.9419 108.45 35.2516 103.529 32.4281Z"></path>
<path d="M104.328 16.6696C102.926 20.7209 105.273 23.4384 107.098 23.8076C107.096 23.8076 108.454 19.0373 104.328 16.6696Z"></path>
<path d="M123.296 27.0479C123.296 27.0479 124.651 22.2762 120.526 19.9085C119.125 23.9611 121.471 26.6759 123.296 27.0479Z"></path>
<path d="M136.404 30.424C136.404 30.424 131.417 26.0431 126.186 29.6683C130.278 33.6911 134.909 32.4157 136.404 30.424Z"></path>
<path d="M126.574 20.8237C126.574 20.8237 129.763 17.0235 126.965 13.1768C124.028 16.3041 125.06 19.7435 126.574 20.8237Z"></path>
<path d="M116.061 24.8111C111.944 23.4068 109.201 25.8015 108.832 27.6521C108.835 27.6521 113.681 29.0062 116.061 24.8111Z"></path>
<path d="M118.058 14.7141C111.665 14.9027 109.125 19.6122 109.57 22.346C109.57 22.3474 116.937 21.7165 118.058 14.7141Z"></path>
<path d="M127.391 25.5856C127.391 25.5856 136.354 24.8204 137.716 16.3014C129.94 16.5266 126.845 22.2564 127.391 25.5856Z"></path>
<path d="M81.6365 43.9075C81.3543 47.5843 83.9009 49.3346 85.4978 49.2422C85.4978 49.2422 85.586 44.9752 81.6365 43.9075Z"></path>
<path d="M88.7255 43.3795C88.7255 43.3795 91.2898 39.2671 88.058 35.9282C85.643 39.3527 87.1123 42.5397 88.7255 43.3795Z"></path>
<path d="M97.3811 53.1187C97.3811 53.1187 93.8195 48.2953 88.5064 50.5015C91.3502 54.8324 95.6837 54.5935 97.3811 53.1187Z"></path>
<path d="M77.6769 9.1637C73.4627 10.6493 72.7722 14.3303 73.6513 16.0562C73.6499 16.0562 78.4243 14.0685 77.6769 9.1637Z"></path>
<path d="M69.6917 15.5824C69.6917 15.5824 67.4313 12.1021 63.6637 13.4021C65.4492 16.5173 68.4559 16.5281 69.6917 15.5824Z"></path>
<path d="M55.9755 23.0397C55.9755 23.0397 58.1042 16.4282 52.4438 12.9156C50.2838 18.5191 53.4397 22.4332 55.9755 23.0397Z"></path>
<path d="M21.3602 45.6372C21.3602 45.6372 14.7202 38.1831 6.23627 42.6455C11.6199 49.4022 18.7688 48.3452 21.3602 45.6372Z"></path>
<path d="M11.5515 58.4121C11.5515 58.4121 4.40825 55.7637 0.28749 61.8081C6.33318 64.4375 10.7714 61.165 11.5515 58.4121Z"></path>
<path d="M21.4887 88.6683C28.2277 87.2926 30.0647 81.8342 29.088 79.0229C29.0853 79.0215 21.3897 81.0255 21.4887 88.6683Z"></path>
</svg></svg><text fill="#79e3bd" font-family="Georgia" font-size="40px" x="28.410491943359375" y="205.02912326923843"><tspan dy="0" x="28.410491943359375">EcoGuardians</tspan></text><text fill="#56bb97" font-family="Times New Roman" font-size="20px" x="111.28883361816406" y="239.28155326843262"><tspan dy="0" x="111.28883361816406">Since 2024</tspan></text></svg>